<svg width="514" height="439" fill="none" xmlns="http://www.w3.org/2000/svg"><g clip-path="url(#clip0)"><path d="M107.996 55.8165c16.916 1.1378 23.999-10.4134 31.937-25.2588 21.758-40.6351 70.222-36.7233 86.478-11.7029 11.512 17.7278 36.345 14.076 56.424 7.141 19.764-6.8267 53.445-13.3825 80.282-5.223 23.436 7.1301 33.042 32.8332 54.41 31.2511 46.601-3.4459 70.091 42.5748 61.644 62.6541-5.513 13.101-8.242 27.762-3.769 41.242 4.927 14.845 16.201 26.602 25.309 39.367 9.108 12.765 16.44 28.726 11.913 43.702-3.877 12.819-15.432 21.683-22.602 33.006-22.277 35.185-.238 89.116-29.923 118.449-21.248 20.989-55.882 16.146-85.611 20.155-24.789 3.337-48.117 13.762-72.799 17.836-49.98 8.268-100.447-9.937-151.11-10.457-17.848-.184-36.031 1.81-53.3156-2.59-23.0678-5.873-42.6916-23.633-50.6949-45.858-11.0466-30.666-.5849-66.164-13.0501-96.289C23.3599 248.698-1.4948 228.727.0755 202.244c.9747-16.493 12.227-30.276 19.9704-44.905 11.5014-21.726-3.7363-107.6557 87.9501-101.5225zm147.482-39.8116c-4.451 0-8.047 2.7632-8.047 6.1657 0 3.4026 3.618 5.8732 8.047 6.1657 14.458.9536 14.458-4.887 14.458-8.3004 0-5.4396-10.018-4.031-14.458-4.031zM402.3 42.3148c3.866 3.1966 8.794 5.1038 13.819 5.3639 1.343.065 2.805-.0217 3.833-.8669 1.278-1.0511 1.419-3.2075.282-4.4103-.715-.7585-1.754-1.0944-2.729-1.4954-1.657-.6718-3.271-1.6362-4.213-3.1424-.271-.4335-.509-.9427-.953-1.192-2.783-1.5712-15.129 1.5387-10.039 5.7431zm24.627 5.4505c1.278.4443 2.664.0326 3.953-.3792.823-.2709 1.83-.8561 1.614-1.6796-.109-.4009-.477-.661-.845-.856-1.69-.8994-3.877-1.5713-5.567-.4118-1.7 1.1486-.422 2.8932.845 3.3266zm58.796 116.2377c.216 1.918 1.408 3.576 2.545 5.137 2.209 3.012 4.451 6.068 7.364 8.419 1.235.997 2.664 1.886 4.256 1.94 1.451.054 2.838-.607 4.007-1.452 2.859-2.048 4.787-5.331 5.188-8.81.541-4.768-1.679-9.416-4.256-13.48-1.603-2.514-3.466-5.028-6.13-6.371-4.484-2.265-7.44-.293-8.696 3.684-1.138 3.662-4.744 6.859-4.278 10.933zM8.7936 275.073c-2.361 2.08-.2274 8.17.4657 12.19.2058 1.203.4873 2.449 1.2454 3.414 1.0397 1.311 2.7725 1.853 4.3862 2.329 2.8699.835 6.3571 1.539 8.5556-.476 1.6245-1.496 1.8628-3.945 1.8519-6.145 0-2.015-.1083-4.02-.3249-6.024-.0974-.965-.2382-1.951-.758-2.774-.6607-1.051-1.8303-1.658-2.9675-2.146-4.1045-1.734-10.0935-2.438-12.4544-.368zM153.07 427.611c-1.397.282-3.065.889-3.271 2.287-.162 1.159.802 2.145 1.744 2.839 7.7 5.754 18.075 6.122 27.714 6.252 1.126.011 2.296.022 3.325-.411 2.057-.867 3.054-3.587 2.09-5.592-.347-.737-.899-1.354-1.484-1.918-7.732-7.553-20.468-5.385-30.118-3.457zm192.405-3.89c-8.696 6.361.097 12.05 11.079 7.835 5.913-2.276 11.588-4.519 17.653-6.036 1.96-.488 13.797-3.056 13.797-5.71 0-7.055-13.332-5.386-21.725-4.216-6.768.943-13.635 2.883-20.804 8.127z" fill="#ECF3FF"/><path d="M182.062 405.332c23.118 0 41.858-1.751 41.858-3.911 0-2.161-18.74-3.912-41.858-3.912-23.117 0-41.857 1.751-41.857 3.912 0 2.16 18.74 3.911 41.857 3.911zM397.091 405.332c23.117 0 41.858-1.751 41.858-3.911 0-2.161-18.741-3.912-41.858-3.912-23.118 0-41.858 1.751-41.858 3.912 0 2.16 18.74 3.911 41.858 3.911z" fill="#C8DBFB"/><path d="M485.528 125.947c-.119-.726-.249-1.441-.39-2.135" stroke="#C8DBFB" stroke-linecap="round" stroke-linejoin="round"/><path d="M484.109 119.619c-7.462-25.4431-31.277-22.9833-52.796-22.94-23.165.0433-381.7661.791-381.7661.791-36.042.0759-32.5439 52.132-4.3319 52.067 16.2232-.032 22.3963 30.449-5.6533 30.504-16.8297.032-17.3712 21.379-6.0539 25.659" stroke="#C8DBFB" stroke-linecap="round" stroke-linejoin="round" stroke-dasharray="3.99 3.99"/><path d="M35.5872 206.253c.6822.119 1.4079.184 2.166.173" stroke="#C8DBFB" stroke-linecap="round" stroke-linejoin="round"/><path d="M42.1716 205.44c.4766 2.828-1.4187 5.505-4.2453 5.992-2.8266.477-5.5016-1.419-5.989-4.247-.4765-2.828 1.4188-5.505 4.2454-5.993 2.8266-.476 5.5124 1.431 5.9889 4.248zM490.629 128.288c-.509 2.817-3.217 4.692-6.032 4.171-2.816-.509-4.69-3.218-4.17-6.035.509-2.818 3.216-4.692 6.032-4.172 2.816.509 4.679 3.207 4.17 6.036zM95.0436 167.536c-.7472 4.215-1.8411 8.333-3.1731 12.396-2.87 8.767-6.8337 17.208-10.8408 25.541-2.0902 4.356-10.57 14.433-15.1186 16.351.5306-11.367.574-24.641-.7473-36.116-1.2671-11.053 2.7075-19.429-1.6245-29.68-.5523-1.311-1.1263-2.622-1.7003-3.933-2.1551-4.877-4.2886-9.775-4.9601-15.03-.8664-6.664 1.2021-14.26 6.9637-17.728 4.1478-2.492 9.552-2.362 13.9814-.401 4.4295 1.962 7.9817 5.548 10.6783 9.568 7.5485 11.227 8.9131 25.725 6.5413 39.032z" fill="#5193F4"/><path d="M74.9 130.726c8.4799 11.984 9.2163 25.941 9.9527 40.602.7365 14.662-2.7832 29.518-10.0285 42.283" stroke="#0B43A4" stroke-miterlimit="10" stroke-linecap="round" stroke-linejoin="round"/><path d="M74.5425 351.759c-5.9456-5.255-11.9562-10.587-16.3532-17.197-3.823-5.753-6.2922-12.288-9.6278-18.345-2.1552-3.912-4.711-7.693-5.9565-11.985-1.2454-4.291-.953-9.384 2.101-12.645 3.184-3.414 8.6532-3.934 12.9743-2.178 4.3211 1.755 7.6243 5.396 10.1368 9.319 3.3465 5.212 5.5883 11.139 6.5197 17.262.8447 5.548.6281 11.226 1.4945 16.774.8014 5.168 2.545 10.131 4.7327 14.867 1.9818 4.291 7.0178 11.952 8.2957 16.351-3.563 1.767-11.783-9.98-14.3172-12.223z" fill="#00AD9F"/><path d="M53.7598 297.254c5.6532 2.471 7.895 9.221 9.0755 15.279 1.3429 6.892 1.0396 14.358 4.202 20.632 5.9564 11.822 13.6999 25.269 19.4614 29.289" stroke="#00AD9F" stroke-miterlimit="10" stroke-linecap="round" stroke-linejoin="round"/><path d="M45.2908 335.592c-4.9277-1.951-11.5231-2.752-14.6854 1.506-2.6425 3.565-1.278 8.626.5523 12.667 1.5487 3.414 3.5089 6.892 6.7579 8.745 2.2201 1.268 4.8301 1.647 7.3752 1.951a176.1216 176.1216 0 0021.3783 1.235c8.2741-.022 18.3026 3.359 25.158 8.528-8.794-16.341-29.934-28.076-46.5363-34.632z" fill="#0056EC"/><path d="M36.6377 346.211c6.2814.271 12.6169.705 18.6383 2.492 6.1623 1.821 29.869 12.711 33.5729 17.338" stroke="#0B43A4" stroke-miterlimit="10" stroke-linecap="round" stroke-linejoin="round"/><path d="M99.094 302.043c-6.4221-10.055-17.4037-17.077-29.2191-18.67-8.729-1.17-17.707.455-26.3276-1.354-9.0539-1.897-17.2197-7.737-21.9415-15.702-4.7219-7.964-5.9565-17.912-3.3031-26.787 2.0252-6.74 6.6495-13.133 13.3424-15.289 3.6497-1.17 7.6352-1.008 11.3607-.119 3.4439.823 6.6387 2.264 9.5845 4.139 6.7362 4.269 12.1836 10.836 16.2774 17.814 3.7146 6.339 12.8768 16.211 19.1148 22.637 3.6605 3.749 6.3139 6.317 6.3139 6.317 4.267 5.332 2.2634 20.675 4.7976 27.014z" fill="#52D2BC"/><path d="M29.6848 243.735c20.9776 9.47 43.8505 21.889 58.7308 39.465" stroke="#00AD9F" stroke-miterlimit="10" stroke-linecap="round" stroke-linejoin="round"/><path opacity=".2" d="M90.4302 280.837s-31.2552-25.356-37.8506-52.565c6.7362 4.269 12.1837 10.836 16.2774 17.814 3.7147 6.339 12.8768 16.211 19.1148 22.637.7365 3.402 1.5487 7.401 2.4584 12.114zM91.8706 179.932c-2.87 8.767-6.8337 17.208-10.8408 25.541-2.0902 4.356-10.5701 14.433-15.1186 16.351.5306-11.367.574-24.641-.7473-36.116-1.2671-11.053 2.7075-19.429-1.6245-29.68-.5523-1.311-1.1263-2.622-1.7003-3.934.4007.131.7906.271 1.1696.434 7.1262 3.056 10.4185 10.598 11.0249 17.923.509 6.046-.5848 12.104-1.397 18.118-.3791 2.774-.6823 5.613-.0867 8.332.0109.033.0217.055.0217.087.7473 3.24 5.4799 3.056 6.0864-.227l1.8953-10.067c.5631-3.013 1.1804-6.166 3.6496-8.268.9747-.834 2.231-1.354 3.5089-1.311 2.0361.076 3.314 1.268 4.1588 2.817z" fill="#5275A0"/><path d="M90.4302 274.487c-4.9385-25.8-7.5377-29.777-5.3609-36.246 2.7725-8.246 1.213-16.525 3.823-24.825 2.61-8.29 4.3861-17.208 2.2851-25.649-.6606-2.666-2.0143-5.57-5.22-5.689-1.2888-.044-2.5342.477-3.5089 1.311-2.4692 2.102-3.0866 5.255-3.6497 8.268l-1.8844 10.067c-.6173 3.272-5.3392 3.467-6.0864.216-.0109-.032-.0109-.054-.0217-.086-.6065-2.72-.2924-5.559.0758-8.333.8122-6.025 1.9061-12.072 1.4079-18.129-.6065-7.325-3.8988-14.867-11.0357-17.912-2.5234-1.084-5.3825-1.322-8.0467-.639-7.4401 1.907-9.3679 9.189-8.274 15.398.7689 4.377 2.8157 8.398 4.6677 12.429 4.5269 9.85 1.2021 18.887 1.8302 29.712 1.7328 29.897 38.9987 60.107 38.9987 60.107z" fill="#7EE8D4"/><path d="M57.2256 164.664c3.6713 18.357 7.386 36.843 14.5121 54.159 2.0902 5.071 3.1082 11.757 15.2052 25.562" stroke="#00AD9F" stroke-miterlimit="10" stroke-linecap="round" stroke-linejoin="round"/><path d="M200.452 169.367c-3.802-4.345-7.311-8.766-11.004-13.025-2.393-2.763-4.862-5.461-7.548-8.018-1.332-1.279-2.708-2.514-4.159-3.717-8.577-7.087-18.151-12.971-28.385-17.349-6.173-2.644-12.693-4.822-17.935-9.037-5.241-4.204-9.01-11.118-7.266-17.608 1.267-4.6815 5.241-8.3224 9.801-9.9912 4.548-1.6579 9.595-1.5279 14.328-.5093 13.212 2.8499 24.248 12.3535 31.753 23.5905.13.195.271.4.401.606 5.501 8.398 9.346 17.739 12.693 27.253 1.072 3.056 2.09 6.133 3.097 9.2 1.516 4.583 6.173 14.065 4.224 18.605z" fill="#5193F4"/><path d="M140.01 101.154c14.414 2.753 24.616 12.299 35.305 22.355 10.689 10.056 18.444 23.2 22.072 37.428" stroke="#0B43A4" stroke-miterlimit="10" stroke-linecap="round" stroke-linejoin="round"/><path opacity=".2" d="M189.448 156.342c-.119 1.496-.075 2.991.206 4.508-3.606-.823-6.108-6.426-7.754-12.526-1.614-5.928-2.415-12.343-2.664-15.301-.488-6.241-.087-12.57 1.202-18.714 5.501 8.398 9.346 17.739 12.693 27.253-1.148 3.413-2.134 6.87-2.946 10.359-.347 1.485-.618 2.948-.737 4.421z" fill="#5275A0"/><path d="M214.455 104.275c-1.224 5.407-4.484 10.078-7.365 14.824-1.516 2.492-2.934 5.06-4.256 7.661-4.234 8.322-7.462 17.153-9.595 26.245-.704 2.98-1.094 5.905-.531 8.929-7.104-1.626-9.942-21.835-10.418-27.838-.856-10.814.985-21.9 5.436-31.804 1.939-4.345 4.452-8.6144 8.318-11.3993 3.855-2.7849 9.314-3.7601 13.397-1.3328 2.458 1.4628 4.039 3.8901 4.808 6.6533.758 2.579.791 5.4508.206 8.0618z" fill="#52D2BC"/><path d="M190.001 155.974c-4.419-11.107-1.733-34.61 5.35-49.38 2.133-4.453 5.176-8.6254 9.433-11.1068" stroke="#00AD9F" stroke-miterlimit="10" stroke-linecap="round" stroke-linejoin="round"/><path opacity=".2" d="M214.455 104.276c-1.224 5.407-4.484 10.077-7.365 14.824-1.516 2.492-2.935 5.06-4.256 7.661-1.939-3.273-3.271-6.881-3.639-10.652-.595-6.296 1.809-13.036 6.921-16.7419 2.393-1.7229 5.198-2.709 8.133-3.1532.758 2.5789.79 5.4501.206 8.0621z" fill="#5275A0"/><path d="M255.446 151.314c-.336 2.07-.953 4.064-1.841 5.982-3.152 6.827-9.769 12.678-19.678 17.446 0 0-.552-10.793-.672-13.686-.487-12.375-13.905-19.212-22.396-28.239-4.321-4.605-7.602-10.413-8.209-16.709-.596-6.296 1.809-13.036 6.92-16.7416 4.289-3.0991 9.899-3.7709 15.184-3.37 8.512.6827 17.1 4.2476 22.396 10.9006.228.25.423.521.618.781 3.238 4.432 4.906 9.828 6.129 15.203 2.123 9.308 3.076 18.995 1.549 28.433z" fill="#00AD9F"/><path d="M213.231 105.998c9.292 4.811 18.595 10.619 23.999 19.57 7.548 12.494 5.902 28.748.087 42.13" stroke="#00AD9F" stroke-miterlimit="10" stroke-linecap="round" stroke-linejoin="round"/><path d="M410.856 231.122c5.924-9.753 2.891-22.301 4.96-33.516 1.581-8.626 6.379-16.623 13.245-22.084 4.31-3.424 10.364-5.873 15.227-3.305 1.05.553 2.306 1.344 3.324.715.607-.368.845-1.127.997-1.82 1.234-6.058-1.679-12.678.704-18.389 1.278-3.077 3.931-5.375 6.736-7.163 5.415-3.456 11.75-5.439 18.162-5.699 1.7-.065 3.476 0 5.003.758 2.751 1.376 4.007 4.811 3.639 7.867-.368 3.056-2.058 5.797-3.92 8.246-6.217 8.138-15.325 15.16-16.527 25.324-.151 1.279-.151 2.644.433 3.793.574 1.116 1.636 1.907 2.231 3.001 1.917 3.522-1.787 7.521-5.393 9.244-3.303 1.582-6.877 2.568-10.527 2.914-2.512.239-5.339.293-7.05 2.146-3.151 3.424.466 8.896-.195 13.502-.411 2.871-2.491 5.19-4.592 7.206-3.888 3.738-8.133 7.086-12.671 10.001-3.682 2.363-7.57 4.443-10.83 7.347-3.26 2.904-5.891 6.838-6.108 11.205" fill="#52D2BC"/><path d="M418.653 221.629c.964-4.724 3.163-9.102 5.339-13.404 3.401-6.729 6.867-13.556 12-19.071 3.899-4.194 8.653-7.51 12.617-11.638 2.827-2.948 5.231-6.285 7.126-9.904 1.029-1.962 1.917-4.02 3.292-5.743 1.646-2.048 3.888-3.511 5.848-5.267 2.643-2.362 4.766-5.298 6.195-8.549" stroke="#00AD9F" stroke-miterlimit="10" stroke-linecap="round" stroke-linejoin="round"/><path d="M495.881 237.883c-1.332 5.137-3.314 10.219-6.714 14.293-2.35 2.807-5.274 5.028-8.469 6.838-1.646.942-3.379 1.766-5.123 2.503-6.779 2.85-14.068 4.464-21.41 4.746-10.7.401-21.704-1.961-31.97 1.094-4.712 1.398-9.054 3.945-12.617 7.315-2.231 2.091-4.148 4.508-5.664 7.162l1.397-8.885c2.588-9.558 5.23-19.288 10.516-27.665 3.411-5.428 7.84-10.153 12.551-14.498 7.527-6.957 15.877-13.079 25.093-17.555 7.451-3.619 15.725-6.165 23.956-5.157 8.22.996 16.299 6.198 18.866 14.076 1.646 5.06.931 10.586-.412 15.733z" fill="#5193F4"/><path d="M412.307 266.187c7.862-11.638 19.634-20.588 32.955-25.031 8.296-2.774 17.079-3.825 25.483-6.252 8.404-2.428 16.797-6.545 21.725-13.784" stroke="#0B43A4" stroke-miterlimit="10" stroke-linecap="round" stroke-linejoin="round"/><path d="M417.484 351.542c.465-11.952 6.638-22.983 14.144-32.302 6.248-7.769 13.797-14.878 23.121-18.421 2.925-1.105 6.13-1.853 9.163-1.105 3.032.747 5.783 3.337 5.837 6.469.043 2.633-1.722 4.941-3.585 6.805-6.129 6.144-14.046 10.077-21.476 14.563-12.757 7.716-24.887 18.01-29.944 32.043" fill="#52D2BC"/><path d="M422.206 341.086c7.797-17.403 27.984-32.964 41.294-34.903" stroke="#00AD9F" stroke-miterlimit="10" stroke-linecap="round" stroke-linejoin="round"/><path d="M412.61 361.046c-.108-2.005 6.422-7.239 7.895-8.572 8.155-7.401 17.837-12.84 28.071-16.048 4.138-1.3 8.545-2.243 12.682-1.246 4.148.997 7.95 4.4 8.35 8.864.39 4.334-2.512 8.582-6.227 10.673-3.715 2.103-8.047 2.417-12.184 2.178-6.389-.368-12.671-1.961-19.082-1.918-6.422.055-15.433.705-19.505 6.069z" fill="#00AD9F"/><path d="M419.26 354.967c13.115-7.109 32.944-11.736 47.348-9.991" stroke="#00AD9F" stroke-miterlimit="10" stroke-linecap="round" stroke-linejoin="round"/><path opacity=".2" d="M255.446 151.314c-.336 2.07-.953 4.064-1.841 5.982-4.603-9.763-8.653-22.507-9.628-38.154-.26-4.237.921-8.593 3.173-12.245.228.25.423.521.618.781 3.238 4.432 4.906 9.828 6.129 15.203 2.123 9.308 3.076 18.995 1.549 28.433z" fill="#5275A0"/><path d="M300.813 150.762c9.79-3.479 19.97-6.253 28.872-11.627 2.697-1.626 5.285-3.511 7.202-6.004 1.906-2.492 3.087-5.678 2.664-8.798-.433-3.165-2.458-6.199-1.776-9.33.455-2.059 1.993-3.663 3.173-5.418 2.805-4.15 3.639-9.579 2.221-14.3905-1.538-5.1579-5.405-9.2973-7.603-14.206-1.798-4.0202-2.437-8.5388-1.83-12.8949-8.22.1084-15.715 4.6053-23.794 6.1007-6.184 1.1486-12.606.5201-18.736 1.9288-11.165 2.5682-20.306 12.4073-22.038 23.7418-5.177-.8886-10.755.9751-14.361 4.8111-3.823 4.074-5.978 9.872-5.632 15.452 2.524 40.559 25.732 61.711 25.732 61.711s22.169-29.744 25.906-31.077z" fill="#7EE8D4"/><path d="M278.904 150.48c-1.018-10.002 2.48-19.895 6.487-29.116 3.909-8.984 8.415-17.793 14.458-25.5084 6.043-7.7153 13.721-14.3253 22.786-18.0529M287.622 83.9468c-1.029 8.918-.304 19.6672 2.014 28.3362M291.304 109.086c10.18-6.534 25.84-10.4998 37.916-9.8063M266.406 110.755c12.26 5.169 12.758 23.2 13.093 28.326M282.835 127.616c9.379-6.729 22.927-8.756 32.901-6.242M308.426 79.309c-2.816 3.4783-3.52 7.6177-3.238 10.4892M307.852 87.2518c4.321-2.2106 10.105-2.7198 16.289-1.1703" stroke="#00AD9F" stroke-miterlimit="10" stroke-linecap="round" stroke-linejoin="round"/><path d="M66.7125 106.876c1.148-.065 9.0105-5.884 12.0321-7.8455.8555-.5527 1.7111-1.127 2.3067-1.9505.5957-.8236.8773-1.9505.4441-2.8716-.5415-1.1377-1.4296-2.2755-3.6714-2.2755-3.9096.0108-5.2742 1.3003-7.1802 3.2616-6.2922 6.5125-3.9313 11.6815-3.9313 11.6815zM101.942 130.357c3.422 1.539 7.072 3.067 10.798 2.59 1.44-.184 3.021-.845 3.498-2.21.411-1.171-.152-2.525-1.083-3.349-.932-.823-2.155-1.224-3.368-1.517-4.549-1.116-10.949-.498-15.4547.78-.0108 0 3.5631 2.785 5.6097 3.706zM124.469 79.7966c-1.527-.9644-3.217-2.2539-3.206-4.0635 0-1.8096 1.884-3.1858 3.693-3.1966 1.809-.0109 3.487.9752 4.852 2.178 5.751 5.0604 5.036 10.8252 5.036 10.8252s-8.675-4.6703-10.375-5.7431zM129.006 64.3769c-1.343-.5743-2.718-1.2678-3.509-2.5031-.379-.596-.595-1.3545-.368-2.0264.39-1.1161 1.094-2.1238 3.921-1.6145 8.934 1.6254 10.884 7.7477 10.884 7.7477s-8.556-.5851-10.928-1.6037zM155.182 77.9219c3.585-.3142 7.289-2.0913 9.542-4.8979.855-1.0619 1.635-2.2213 1.916-3.5542.282-1.3328-.021-2.8499-1.05-3.7384-1.256-1.0836-3.249-.9102-4.624 0-1.387.9102-2.275 2.4056-2.99 3.8901-.953 1.9939-2.794 8.3004-2.794 8.3004z" fill="#4A49CA"/><path d="M91.1882 208.669c-8.6748-7.65-17.3604-15.311-26.0352-22.961-4.6244-4.075-9.3462-8.279-12.2703-13.708-6.2922-11.67-2.6642-26.83 5.8373-37.005 8.5015-10.175 20.956-16.178 33.4754-20.545 12.5086-4.367 25.5366-7.433 37.4606-13.22 7.484-3.6299 15-9.0262 17.057-17.0883 1.235-4.8437.195-10.2292-2.75-14.2602-2.946-4.0418-7.755-6.6641-12.747-6.9567M161.247 69.5999c-2.372 7.2818-11.61 11.7137-15.822 18.0311" stroke="#0B43A4" stroke-miterlimit="10" stroke-linecap="round" stroke-linejoin="round"/><path d="M128.086 77.9761c1.819 1.918 3.996 3.5109 5.588 5.6239 3.357 4.4753 3.628 11.7462-1.332 16.254M81.3545 118.763c7.6568 5.906 17.7178 9.839 27.3785 10.207M63.8316 129.512c-3.5305-10.402.3141-22.864 9.0864-29.463" stroke="#0B43A4" stroke-miterlimit="10" stroke-linecap="round" stroke-linejoin="round"/><path d="M343.688 85.5614c-.411-1.2895-.39-2.8715.553-3.8359.758-.7585 2.014-1.1053 3-.6718 7.613 3.3483 6.79 15.2354 6.79 15.2354s-7.213-1.0403-10.343-10.7277zM343.504 107.829c-4.927 8.908 12.574 8.225 18.888 2.98 0 0-14.642-10.651-18.888-2.98zM365.64 86.2441c-1.191-1.6255-1.613-4.0527-.314-5.6023.964-1.1486 2.643-1.5062 4.116-1.2244 1.473.2817 3.682 1.647 4.624 2.8173 5.762 7.1735 3.054 14.1844 3.054 14.1844s-9.541-7.5094-11.48-10.175zM435.147 108.295c-.422-1.387-.325-3.077.747-4.052.683-.618 1.646-.835 2.556-.77.91.065 1.787.401 2.621.781 1.787.812 3.173 2.243 4.029 4.009 2.166 4.464.693 9.98.693 9.98s-9.585-6.491-10.646-9.948zM413.282 124.636c-3.098-2.72-7.83-3.522-11.61-1.864-.964.423-1.874 1.019-2.48 1.864-1.386 1.918-.899 4.714.541 6.588 1.43 1.875 3.607 3.013 5.762 3.988 3.899 1.766 9.942 2.124 14.09 3.186-.011-.011-.022-8.246-6.303-13.762z" fill="#4A49CA"/><path d="M349.147 87.4794c2.577 8.4304 9.866 14.8016 17.977 18.2366 8.112 3.446 17.047 4.356 25.851 4.92 8.794.574 17.697.856 26.198 3.164 8.285 2.254 16.548 6.935 20.1 14.759 4.332 9.525.499 20.902-5.588 29.42-6.075 8.506-14.263 15.365-20.143 24.012-2.697 3.966-4.961 8.626-4.408 13.394.725 6.36 6.086 11.041 11.057 15.072M369.42 84.3802c5.827 6.4475 10.484 16.5358 11.621 25.1618" stroke="#0B43A4" stroke-miterlimit="10" stroke-linecap="round" stroke-linejoin="round"/><path d="M349.818 109.303c3.336.889 6.715 1.777 10.159 1.788 3.444.011 7.44-1.907 9.92-4.302M440.854 108.816c3.12 3.012 5.026 7.271 5.188 11.605.162 4.345-2.242 9.601-5.133 12.841M408.181 128.515c6.238 5.743 11.664 10.392 18.595 15.268 3.162 2.233 9.443 5.082 12.238 4.346" stroke="#0B43A4" stroke-miterlimit="10" stroke-linecap="round" stroke-linejoin="round"/><path opacity=".2" d="M480.697 259.014c-1.646.942-3.379 1.766-5.122 2.503-6.78 2.85-14.068 4.464-21.411 4.746-10.7.401-21.703-1.961-31.97 1.094-4.711 1.398-9.054 3.945-12.617 7.315-.357.173-.715.368-1.072.574-.856-7.249 17.209-16.698 22.7-19.158 9.909-4.443 20.955-6.415 31.785-5.548 4.744.379 9.607 1.311 13.516 4.009 1.679 1.16 3.152 2.709 4.191 4.465z" fill="#5275A0"/><path d="M462.98 254.874c4.744.38 9.606 1.311 13.516 4.01 3.91 2.698 6.671 7.52 5.761 12.19-1.061 5.44-6.682 8.983-12.183 9.644-5.502.672-10.993-.845-16.418-1.961-12.011-2.471-24.4-3.045-36.584-1.669-3.043.336-5.924.943-8.577 2.503-.856-7.249 17.219-16.698 22.71-19.158 9.91-4.453 20.956-6.426 31.775-5.559z" fill="#52D2BC"/><path d="M413.195 275.018c8.967-7.888 32.002-13.241 48.291-11.518 4.905.52 9.855 1.983 13.624 5.169" stroke="#00AD9F" stroke-miterlimit="10" stroke-linecap="round" stroke-linejoin="round"/><path d="M396.441 186.38l87.603-.185c10.278-.021 18.628 8.301 18.649 18.584.022 10.284-8.295 18.638-18.573 18.66l-59.922.119M131.389 250.735l-61.265.13c-5.8048.011-10.4942 4.724-10.4834 10.533.0109 5.808 4.7219 10.5 10.5268 10.489l17.8585-.033" stroke="#0B43A4" stroke-miterlimit="10" stroke-linecap="round" stroke-linejoin="round" stroke-dasharray="4 4"/><path d="M33.6054 298.197c-20.9885.043-21.4216 31.37 5.2742 31.305 26.7066-.054 377.0224-.78 393.5384-.813 16.516-.032 18.259-25.822-2.155-25.779-40.645.087-41.988-19.309-19.429-19.353" stroke="#C8DBFB" stroke-miterlimit="10" stroke-linecap="round" stroke-linejoin="round" stroke-dasharray="4 4"/><path d="M38.5112 297.33c.4766 2.828-1.4187 5.504-4.2453 5.992-2.8266.477-5.5016-1.419-5.989-4.248-.4765-2.828 1.4188-5.504 4.2454-5.992 2.8266-.477 5.5124 1.42 5.9889 4.248z" fill="#5193F4"/><path d="M420.906 283.698c.476 2.828-1.419 5.505-4.246 5.992-2.826.477-5.501-1.419-5.989-4.247-.476-2.829 1.419-5.505 4.246-5.993 2.826-.476 5.501 1.431 5.989 4.248z" fill="#0B43A4"/><path opacity=".2" d="M426.548 374.266l-325.862.671c-4.3426.011-7.884-3.51-7.884-7.856l-.4441-215.994c-.0108-4.346 3.5089-7.889 7.8521-7.889l325.862-.672c4.343-.011 7.884 3.511 7.884 7.856l.444 215.995c.011 4.345-3.498 7.878-7.852 7.889z" fill="#5275A0"/><path d="M420.169 370.136l-325.8617.672c-4.3428.011-7.8842-3.511-7.8842-7.856l-.4441-215.995c-.0108-4.345 3.5089-7.888 7.8517-7.888l325.8623-.672c4.343-.011 7.884 3.511 7.884 7.856l.444 215.995c.011 4.345-3.509 7.877-7.852 7.888z" fill="#fff"/><path d="M419.163 138.387l-324.4653.672c-4.7326.011-8.5556 3.857-8.5556 8.593l.0108 7.455 341.6091-.704-.011-7.456c-.011-4.735-3.855-8.571-8.588-8.56z" fill="#0056EC"/><path d="M95.0869 370.809l49.0271-.098-.444-215.723-57.5936.119.4224 207.163c.0108 4.725 3.8554 8.55 8.5881 8.539z" fill="#C8DBFB"/><path d="M419.791 140.554c3.141 0 5.696 2.557 5.707 5.7l.444 215.994c0 1.528-.585 2.959-1.668 4.042-1.072 1.084-2.501 1.68-4.028 1.68l-325.8734.672c-3.1407 0-5.6965-2.558-5.7074-5.7l-.444-215.995c0-1.527.5848-2.958 1.6678-4.041 1.0722-1.084 2.5017-1.68 4.0287-1.68l325.8513-.672h.022zm0-2.167h-.022l-325.8621.672c-4.3428.011-7.8625 3.543-7.8517 7.888l.444 215.995c.0109 4.345 3.5306 7.856 7.8734 7.856h.0217l325.8627-.672c4.342-.011 7.862-3.543 7.851-7.888l-.444-215.995c-.011-4.345-3.53-7.856-7.873-7.856z" fill="#0056EC"/><path d="M135.84 354.317l-37.7855.075c-1.6678 0-3.0215-1.343-3.0215-3.012v-.379c0-1.669 1.3429-3.024 3.0107-3.024l37.7853-.075c1.668 0 3.022 1.343 3.022 3.012v.379c.011 1.669-1.343 3.024-3.011 3.024zM131.302 207.965l-32.1647.065c-3.0541.011-5.5341-2.47-5.5449-5.526l-.065-32.183c-.0109-3.056 2.4692-5.537 5.5232-5.548l32.1654-.065c3.054-.011 5.534 2.47 5.545 5.526l.064 32.183c0 3.067-2.469 5.548-5.523 5.548z" fill="#fff"/><path d="M269.005 304.373l-112.068.228c-2.177 0-3.942-1.756-3.953-3.934v-.487c0-2.178 1.754-3.945 3.931-3.955l112.068-.228c2.177 0 3.943 1.756 3.953 3.934v.487c0 2.189-1.754 3.955-3.931 3.955zM262.529 176.616l-88.557.185c-2.177 0-3.942-1.756-3.953-3.934v-.487c0-2.178 1.755-3.945 3.932-3.956l88.556-.184c2.177 0 3.942 1.756 3.953 3.934v.487c0 2.189-1.755 3.955-3.931 3.955zM402.527 266.241l-118.078.25c-2.177 0-3.943-1.756-3.953-3.934v-.488c0-2.178 1.754-3.944 3.931-3.955l118.079-.238c2.177 0 3.942 1.755 3.953 3.933v.488c0 2.167-1.755 3.933-3.932 3.944zM269.038 321.7l-112.069.228c-2.177 0-3.942-1.756-3.953-3.934v-.487c0-2.178 1.755-3.945 3.932-3.956l112.068-.227c2.177 0 3.942 1.755 3.953 3.933v.488c.011 2.178-1.755 3.944-3.931 3.955zM269.07 339.016l-112.068.228c-2.177 0-3.942-1.756-3.953-3.934v-.488c0-2.178 1.754-3.944 3.931-3.955l112.068-.227c2.177 0 3.942 1.755 3.953 3.933v.488c.011 2.178-1.754 3.955-3.931 3.955zM400.123 350.307l-112.945.239c-3.596.01-6.52-2.904-6.52-6.502l-.097-48.535c-.011-3.597 2.902-6.523 6.498-6.523l112.945-.238c3.596-.011 6.52 2.904 6.52 6.501l.097 48.535c.011 3.597-2.902 6.523-6.498 6.523zM104.877 146.904c0 1.528-1.234 2.763-2.751 2.763-1.516 0-2.7613-1.235-2.7613-2.752 0-1.528 1.2343-2.763 2.7513-2.763 1.516 0 2.761 1.235 2.761 2.752zM113.812 149.657c1.525 0 2.762-1.238 2.762-2.764 0-1.526-1.237-2.763-2.762-2.763s-2.762 1.237-2.762 2.763c0 1.526 1.237 2.764 2.762 2.764zM128.259 146.861c0 1.528-1.235 2.763-2.751 2.763-1.516 0-2.761-1.235-2.761-2.752 0-1.528 1.234-2.764 2.75-2.764 1.517-.01 2.751 1.225 2.762 2.753zM165.685 173.457c.44-4.388-2.76-8.302-7.146-8.742-4.386-.44-8.298 2.761-8.737 7.15-.44 4.388 2.76 8.303 7.146 8.742 4.386.44 8.298-2.761 8.737-7.15z" fill="#C8DBFB"/><path d="M133.544 214.716l-35.3595.076c-.8231 0-1.4837-.661-1.4946-1.485v-.184c0-.823.6607-1.484 1.4837-1.495l35.3594-.076c.824 0 1.484.661 1.495 1.484v.185c0 .823-.661 1.495-1.484 1.495zM133.555 221.478l-35.3598.075c-.8231 0-1.4837-.661-1.4945-1.484v-.184c0-.824.6606-1.485 1.4837-1.496l35.3596-.076c.823 0 1.484.661 1.495 1.485v.184c0 .824-.661 1.485-1.484 1.496z" fill="#fff"/><path d="M174.037 235.76l-9.996.097.076 41.914-8.631.021c-3.044.011-5.513-2.459-5.524-5.504l-.162-77.51c-.011-3.078 2.48-5.581 5.556-5.581l18.573-.043.108 46.606z" fill="#C8DBFB"/><path d="M238.898 189.024v1.083c2.989 0 5.426 2.428 5.426 5.418l.151 75.571c0 1.452-.563 2.817-1.581 3.847-1.018 1.029-2.383 1.592-3.834 1.603l-82.6.174c-2.989 0-5.426-2.428-5.426-5.418l-.151-75.571c0-1.452.563-2.817 1.581-3.847 1.018-1.029 2.383-1.592 3.834-1.603l82.589-.174.011-1.083zm0 0h-.011l-82.589.173c-3.596.011-6.509 2.926-6.498 6.523l.151 75.571c.011 3.597 2.925 6.501 6.509 6.501h.011l82.589-.173c3.596-.011 6.509-2.926 6.498-6.523l-.151-75.571c0-3.597-2.914-6.512-6.509-6.501zM376.806 251.212L266.644 226.3c-3.509-.791-5.707-4.281-4.917-7.791l12.39-54.863c.79-3.511 4.278-5.711 7.787-4.92l110.162 24.912c3.509.791 5.707 4.28 4.917 7.791l-12.39 54.863c-.791 3.511-4.278 5.722-7.787 4.92z" fill="#C8DBFB"/><path d="M163.608 400.424l-15.411.032-3.78-19.645 22.884-.044-3.693 19.657z" fill="#0056EC"/><path d="M148.685 380.8c0 1.603-.304 4.291.769 4.334 1.072.043.628-2.557 1.841-2.481.779.043-.358 8.538 2.577 8.744 2.015.141 1.646-4.161 1.852-6.859.141-1.82 2.469-1.463 2.491-.26.022 1.355-.065 2.254 0 3.793.108 2.568 4.05 1.885 3.91-1.539-.141-3.424-.011-5.743-.011-5.743l-13.429.011z" fill="#C8DBFB"/><path d="M145.002 392.665c-.314 0-.617-.032-.909-.097-1.138-.249-1.928-.845-2.372-1.777-1.571-3.338 2.567-9.579 2.729-9.861l.217 1.127c-.033.065-3.639 5.429-2.221 8.43.336.716.932 1.16 1.831 1.355.249.054.509.076.769.076 5.555-.011 15.042-10.359 15.151-10.479.39-.466 1.115-.021.855.369-.444.498-10.082 10.847-16.05 10.857z" fill="#0C2340"/><path opacity=".2" d="M306.975 123.964c-21.909-.834-52.071 15.377-41.371 55.015-.227 3.348 1.777 5.743 3.91 5.093 2.134-.65.249-7.011.249-7.011 3.65-29.474 10.473-34.567 22.05-34.459l27.172-.054c6.715.986 18.92 5.689 20.75 29.279l6.769 1.246c.531-17.045-3.585-47.733-39.529-49.109z" fill="#5275A0"/><path d="M306.975 120.508c-21.909-.835-52.071 15.376-41.371 55.014l4.159-1.918c3.65-29.474 10.473-34.567 22.05-34.458l27.172-.055c6.715.986 19.245 6.957 21.075 30.547l6.433-.011c.542-17.056-3.574-47.743-39.518-49.119z" fill="#EF832B"/><path d="M302.491 121.158l-3.249 7.151s.39 4.031 4.343 3.945c3.953-.087 4.484-1.907 4.484-1.907l.519-8.214-6.097-.975z" fill="#FFB9A3"/><path d="M319.223 115.187c-3.703 6.556-5.35 8.604-10.201 9.59-6.282 1.279-13.321-2.958-10.051-13.404 2.665-8.517 6.715-7.206 10.668-6.881 3.953.314 13.592 3.608 9.584 10.695z" fill="#FFB9A3"/><path d="M304.473 110.007c-.985-.509-2.253-.075-3.021.726-.791.835-1.17 2.07-.834 3.165-1.517.021-2.849 1.506-2.708 3.023-1.04-2.417-.476-4.941-.682-7.423-.206-2.481.065-5.169 1.668-7.065.66-.78 1.505-1.376 2.404-1.853 3.411-1.8204 7.711-1.8746 11.176-.162.715.357 2.513 1.484 5.025.877 4.787-1.159 7.581 2.081 4.711 5.115.921.336 1.939.748 2.351 1.636.108.228.162.509.021.715-.097.141-.27.217-.444.271-.801.271-1.678.336-2.523.195.325.271 2.101.379 2.632 1.42 1.429 2.752-4.224 1.365-5.091 1.083.986.185 3.564 2.243 2.74 3.663-.162.282-3.649 2.308-7.31-1.951-.855-.986-1.917-1.907-3.173-2.243-.985-.26-2.025.098-2.989.466-.704.26-2.491 1.355-3 .705-.531-.694.195-1.788-.953-2.363z" fill="#0C2340"/><path d="M340.764 169.627c-.974 3.349-1.949 3.674-.78 4.205 1.181.531 2.134-1.344 2.134-1.344l5.437 1.084s-1.224-3.533-2.08-3.956c-.855-.422-4.711.011-4.711.011zM269.763 173.604c.715 1.766.91 1.777 1.895 3.901 1.896 4.053-2.534 10.457-5.285 3.468-.758-1.918-.769-5.44-.769-5.44l4.159-1.929z" fill="#FFB9A3"/><path d="M312.217 100.992c3.714.206 8.285-2.4167 11.198.942.271.315.812-.097.574-.444-2.783-3.9983-7.949-1.018-11.761-1.127-.412 0-.401.607-.011.629zM313.711 98.9438c-2.534.4443-4.981-.7585-7.527-.3576-2.068.3251-3.909 1.387-5.469 2.7418-.4.346.119 1.029.574.737 2.188-1.442 4.289-2.6877 7.018-2.4819 1.982.1409 3.661.7369 5.632.1409.498-.1517.281-.8669-.228-.7802zM299.264 102.411c-1.787 1.116-2.816 2.601-3.032 4.736-.152 1.538-.195 5.06 1.353 5.927.369.206.758-.282.455-.596-.996-1.008-1.083-3.728-1.007-5.006.108-1.962.931-3.457 2.491-4.627.249-.184.022-.607-.26-.434zM326.74 108.512c-.921-1.593-3.271-3.002-5.08-1.994-.281.163-.151.596.163.596.79.011 1.516-.087 2.285.152.877.271 1.614.78 2.133 1.528.217.303.683.043.499-.282z" fill="#0C2340"/><path d="M206.224 273.816c11.49 4.226 21.465 17.402 19.169 26.992-2.588 10.825-10.05 15.496-10.05 15.496l-2.35-4.346s5.967-9.329 5.447-13.74c-.834-7.054-9.736-11.778-9.736-11.778l-2.48-12.624z" fill="#0B43A4"/><path d="M177.947 395.959s-7.05 2.85-8.816 4.465l13.971-.033-.011-4.443-5.144.011zM208.823 395.688s2.004 2.319 2.372 4.649l-9.53.022c.162-1.604.844-3.153 1.776-4.66l5.382-.011z" fill="#0C2340"/><path d="M209.408 395.894l-6.509.011c.13-7.672-1.451-33.819-2.978-53.367-.899-11.465-1.787-20.675-2.307-22.539l3.487-.77 13.159-2.925c2.252 10.294-2.946 57.561-4.852 79.59z" fill="#047F76"/><path d="M185.485 319.587c-5.08 7.997-6.39 65.818-8.513 76.535l6.173.347s7.094-36.453 22.191-77.435l-19.851.553z" fill="#009790"/><path opacity=".2" d="M207.935 319.034c-2.978 8.095-5.653 16.016-8.014 23.504-.899-11.465-1.787-20.675-2.307-22.539l3.487-.77 6.834-.195z" fill="#5275A0"/><path d="M185.485 319.587c-5.08 7.997-6.39 65.818-8.513 76.535l6.173.347s7.094-36.453 22.191-77.435l-19.851.553z" fill="#009790"/><path d="M189.362 255.037s-3.953 15.062 5.924 15.051l-.585 3.847 7.494.823-1.624-5.363s1.483-9.471 1.581-11.183c.184-3.197-8.762-8.821-12.79-3.175z" fill="#FFB9A3"/><path d="M164.95 238.152l-2.913.006.024 12.299 2.913-.006-.024-12.299z" fill="#0C2340"/><path d="M171.839 238.133l-16.7.032c-1.17 0-2.123-.943-2.123-2.113v-.433c0-1.171.943-2.124 2.112-2.124l16.7-.033c1.17 0 2.123.943 2.123 2.113v.434c.01 1.17-.943 2.124-2.112 2.124z" fill="#0056EC"/><path d="M161.258 253.661c-.076-2.785-2.383-2.059-1.115-6.61.779-2.818 6.595.455 5.869 2.405-.725 1.951-1.559 5.039-1.559 5.039l-3.195-.834z" fill="#FFB9A3"/><path d="M195.351 273.057c-14.762.975-15.736 5.96-22.343 5.18-9.779-1.149-8.068-19.321-6.855-25.833l-5.837.011s-10.527 41.382 22.721 33.732c-1.278 7.249 6.996 19.093-1.029 33.462 12.617 3.435 24.4 4.269 34.483-.065-1.766-2.384 3.617-26.429-6.921-43.734-2.057-3.392-13.136-2.829-14.219-2.753z" fill="#0056EC"/><path d="M195.351 273.057c-14.762.975-15.736 5.96-22.343 5.18-9.779-1.149-8.068-19.321-6.855-25.833l-5.837.011s-10.527 41.382 22.721 33.732c-1.278 7.249 6.996 19.093-1.029 33.462 12.617 3.435 24.4 4.269 34.483-.065-1.766-2.384 3.617-26.429-6.921-43.734-2.057-3.392-13.136-2.829-14.219-2.753z" fill="#0056EC"/><path d="M193.315 257.93c.964.249 2.079.433 2.599 1.246.336.531.314 1.192.281 1.81.174-.65.899-1.116 1.582-1.03.693.076 1.278.694 1.288 1.366.011.314-.097.617-.216.91-.293.737-.661 1.43-1.094 2.091 1.202.445 2.22 3.977 2.816 5.072 2.025-.51 6.541-2.254 6.931-9.439.184-3.348-.834-7.357-4.462-9.579-2.567-1.571-6.812-1.593-9.747-.845-2.383.607-6.173 2.991-4.408 5.765.888 1.398 2.838 2.221 4.43 2.633z" fill="#EF832B"/><path d="M205.964 253.357c1.375-.455 3.119-.216 3.942.932.639.9.585 2.07.791 3.143.097.52.281 1.04.682 1.397.476.423 1.169.531 1.819.564 1.592.087 3.195-.119 4.765.152 1.571.271 3.174 1.148 3.618 2.611.249.813.108 1.701.411 2.492.444 1.192 1.711 1.875 2.816 2.569 2.35 1.473 4.354 3.467 5.794 5.775.921 1.463 1.624 3.088 1.733 4.79.108 1.701 1.343 3.955 1.007 5.624-.357 1.809-2.134 4.258-5.642 5.385-6.065 1.951-7.993 2.796-13.809-.661-.704-.412-2.068-1.831-2.707-2.341-.498-.4-.812-.975-.986-1.571-.487-1.668.076-3.467.943-4.984.866-1.517 2.046-2.861 2.934-4.367.531-.91.964-1.918.921-2.958-.022-.391-.119-.791-.401-1.073-.249-.239-.595-.358-.942-.423-1.278-.249-2.686.011-3.834-.563-1.126-.553-1.743-1.918-1.397-3.089.228-.78.823-1.441.986-2.232.238-1.148-.477-2.319-1.473-2.991-.996-.671-2.22-.931-3.422-1.126-.596-.098-1.213-.196-1.69-.542-.595-.423-.866-1.171-.855-1.875.043-2.254 1.873-3.933 3.996-4.638z" fill="#EF832B"/><path d="M204.87 259.414c7.3 1.583-1.917 8.507 1.95 11.823 1.104.942 2.382.65 3.671.823 4.96.683 2.242 4.053 1.906 6.697-.054.401.606.477.693.097.422-1.82 2.09-4.052 1.235-5.992-.758-1.712-2.643-1.506-4.191-1.56-1.939-.055-4.073 0-3.347-3.847.163-.856.845-1.723 1.181-2.536.379-.932.639-1.853.433-2.871-.358-1.723-1.787-2.731-3.433-3.002-.239-.054-.347.314-.098.368zM189.827 250.464c5.632-2.861 11.242-2.286 15.996 1.907.325.282.758-.152.477-.477-4.17-4.702-11.588-5.526-16.624-1.701-.163.13-.033.369.151.271z" fill="#EF832B"/><path d="M378.983 268.138l-2.437 4.919 5.957 2.438.639-5.656-4.159-1.701z" fill="#FFB9A3"/><path d="M382.579 252.154c-13.527 5.895-7.982 20.177.249 18.498 4.007-.813 6.032-13.73 6.032-13.73l-6.281-4.768z" fill="#FFB9A3"/><path d="M387.073 250.128c-.444-.823-.866-1.712-1.602-2.297-.737-.585-1.896-.78-2.578-.141-.91.845-.379 2.427.541 3.262-.79.097-1.732-.456-2.317.097-.444.412-.293 1.149-.033 1.701.596 1.29 1.571 2.417 2.773 3.175-.682.39-1.484 1.149-1.072 1.821.119.184.303.314.422.498.26.434.011.997-.26 1.431-.422.704-.888 1.387-1.375 2.048.465-.64 1.603-.38 1.938.336.336.715.044 1.592-.487 2.178-.292.325-.661.596-1.094.693-.368.087-2.014 5.158-.736 6.155 1.581 1.224 6.953.162 7.732-1.225.78.846 1.917 1.485 3.043 1.257 1.127-.227 1.982-1.614 1.376-2.589 1.213.444 2.697.054 3.53-.943.834-.997.953-2.525.293-3.641.66-.195.801-1.094.628-1.766-.347-1.355-1.451-2.503-2.805-2.883.682.011 1.224-.682 1.256-1.365.033-.683-.325-1.333-.758-1.864-1.267-1.571-2.772-1.983-4.646-2.221-1.884-.228-2.924-2.157-3.769-3.717z" fill="#4A49CA"/><path d="M374.402 395.027s-7.916 3.804-8.978 4.985c0 0 15.574.704 16.798-.032 1.223-.737-2.491-4.963-2.491-4.963l-5.329.01zM403.849 390.725s-6.953 5.364-7.754 6.74c0 0 16.418-2.438 16.418-3.51 0-1.073-3.466-4.346-3.466-4.346l-5.198 1.116z" fill="#0C2340"/><path d="M382.048 321.592c-.292 1.614-11.133 44.417 19.884 70.087l8.978-2.059s-10.451-9.806-15.379-27.469c-4.657-16.698-.964-18.335 1.831-27.524 3.097-10.175.79-17.565.79-17.565l-16.104 4.53z" fill="#D8742A"/><path d="M367.233 321.462c-4.917 11.757-13.354 51.818 5.036 74.367l9.184-.021s-7.235-7.932-8.047-26.343c-.812-18.41 3.866-26.494 7.169-32.562 3.303-6.079 6.357-16.395 6.357-16.395l-19.699.954z" fill="#EF832B"/><path d="M360.756 248.589c-2.436 8.604-3.238 24.511 8.978 30.916l8.177-1.994s-14.75-7.737-11.588-27.285l-5.567-1.637z" fill="#0B43A4"/><path d="M338.219 244.19l6.347-.78s-.769 26.678 30.031 28.932c23.512 1.712 25.353 45.858 25.353 45.858-7.581 5.104-20.295 6.653-36.594 5.483 0 0 1.039-31.49-1.549-40.115 0-.011-25.591-8.062-23.588-39.378z" fill="#0056EC"/><path d="M330.454 239.346c-1.072 1.246 3.412 2.828 7.765 4.844l5.578-.683s.065-1.116 0-2.275c-.065-1.16-.65-1.821-1.311-.824-.66.997-3.476 1.333-4.808.423-1.343-.921-6.152-2.731-7.224-1.485zM360.756 248.589c-2.046-2.004-1.494-1.885-1.494-1.885l6.227 1.409s1.365-3.045 2.534-3.121c1.159-.087-.877 2.091-.411 2.904.466.813-1.278 2.34-1.278 2.34l-5.578-1.647z" fill="#FFB9A3"/><path d="M390.571 253.065c1.278.325 2.578.455 3.639 1.332 1.051.867 1.527 2.352.769 3.555-.357.563.487 1.007.867.509.963-1.268.703-3.002-.271-4.204-1.127-1.377-3.217-1.951-4.928-1.767-.303.033-.411.488-.076.575zM396.203 264.627c.845.498 1.549 1.3 1.191 2.351-.336.964-1.31 1.539-2.101 2.091-.379.271-.054.846.368.629 1.17-.618 2.405-1.485 2.589-2.915.162-1.246-.672-2.189-1.711-2.752-.379-.195-.704.368-.336.596zM381.983 271.085c2.87 1.788 6.931 1.495 9.303-1.019.292-.314-.108-.899-.477-.617-2.599 1.928-5.544 2.546-8.588 1.235-.27-.119-.498.238-.238.401z" fill="#4A49CA"/><path d="M396.582 254.95c1.646 1.571 0 3.717-1.062 5.06-.238.293.13.694.423.423.942-.878 1.884-1.853 2.014-3.197.098-1.018-.325-1.983-1.224-2.481-.119-.065-.26.098-.151.195z" fill="#4A49CA"/><path d="M213.382 56.9975l-2.534-6.209 24.508-9.319-21.974 15.528z" fill="#0B43A4"/><path d="M214.617 53.1616l20.739-11.6921-14.436 14.672-6.303-2.9799z" fill="#5193F4"/><path d="M205.238 48.2528l30.118-6.7833-24.508 9.319-5.61-2.5357z" fill="#5193F4"/><path d="M214.617 53.1616l-1.235 3.836 3.748-2.644-2.513-1.192z" fill="#0056EC"/><path d="M210.502 56.1631c-6.401-1.0836-15.086 5.3963-11.35 12.1363 1.267 2.2973 7.83 1.3004 7.343-1.2353-.239-1.2136-1.722-1.7337-2.946-1.5929-7.148.8236-7.44 6.8159-7.115 8.3438 1.635 7.8886 13.721 5.2229 17.782 4.1068" stroke="#C8DBFB" stroke-miterlimit="10" stroke-linecap="round" stroke-linejoin="round" stroke-dasharray="4 4"/></g><defs><clipPath id="clip0"><path fill="#fff" d="M0 0h514v439H0z"/></clipPath></defs></svg>